<svg xmlns="http://www.w3.org/2000/svg" viewBox="0 0 357 357" preserveAspectRatio="none"><path fill="#fff" d="M195 3h1v1h-1zM203 4h1v1h-1zM214 6h1v1h-1zM241 14h1v1h-1zM205 22h6v1h-6zM204 23h8v1h-8zM203 24h10v1h-10zM202 25h12v1h-12zM201 26h14v1h-14zM200 27h16v1h-16zM199 28h17v1h-17zM198 29h19v1h-19zM198 30h20v1h-20zM197 31h21v1h-21zM197 32h22v1h-22zM196 33h24v1h-24zM196 34h24v1h-24zM195 35h26v1h-26zM184 36h37v1h-37zM282 36h1v1h-1zM177 37h45v1h-45zM175 38h48v1h-48zM231 38h5v1h-5zM69 39h1v1h-1zM171 39h52v1h-52zM230 39h8v1h-8zM286 39h1v1h-1zM169 40h54v1h-54zM229 40h9v1h-9zM241 40h4v1h-4zM167 41h57v1h-57zM228 41h23v1h-23zM165 42h60v1h-60zM227 42h26v1h-26zM64 43h1v1h-1zM163 43h92v1h-92zM291 43h1v1h-1zM63 44h1v1h-1zM161 44h96v1h-96zM292 44h1v1h-1zM160 45h98v1h-98zM158 46h101v1h-101zM157 47h102v1h-102zM156 48h104v1h-104zM155 49h105v1h-105zM139 50h9v1h-9zM154 50h107v1h-107zM136 51h126v1h-126zM300 51h1v1h-1zM54 52h1v1h-1zM135 52h127v1h-127zM300 52h2v1h-2zM53 53h1v1h-1zM135 53h128v1h-128zM302 53h1v1h-1zM52 54h1v1h-1zM135 54h128v1h-128zM302 54h2v1h-2zM135 55h129v1h-129zM304 55h1v1h-1zM135 56h129v1h-129zM304 56h1v1h-1zM135 57h129v1h-129zM135 58h129v1h-129zM135 59h130v1h-130zM135 60h130v1h-130zM135 61h130v1h-130zM135 62h108v1h-108zM245 62h20v1h-20zM44 63h1v1h-1zM135 63h108v1h-108zM246 63h20v1h-20zM311 63h1v1h-1zM43 64h1v1h-1zM135 64h109v1h-109zM247 64h19v1h-19zM312 64h1v1h-1zM135 65h109v1h-109zM248 65h18v1h-18zM135 66h109v1h-109zM248 66h18v1h-18zM135 67h109v1h-109zM249 67h18v1h-18zM135 68h110v1h-110zM250 68h17v1h-17zM39 69h1v1h-1zM136 69h109v1h-109zM250 69h17v1h-17zM316 69h1v1h-1zM136 70h110v1h-110zM251 70h16v1h-16zM136 71h110v1h-110zM251 71h16v1h-16zM136 72h110v1h-110zM252 72h15v1h-15zM36 73h1v1h-1zM136 73h110v1h-110zM252 73h16v1h-16zM319 73h1v1h-1zM136 74h111v1h-111zM252 74h16v1h-16zM136 75h111v1h-111zM252 75h16v1h-16zM137 76h110v1h-110zM252 76h16v1h-16zM137 77h110v1h-110zM252 77h16v1h-16zM137 78h111v1h-111zM253 78h15v1h-15zM138 79h110v1h-110zM253 79h15v1h-15zM138 80h110v1h-110zM253 80h15v1h-15zM138 81h110v1h-110zM253 81h15v1h-15zM138 82h110v1h-110zM252 82h16v1h-16zM139 83h110v1h-110zM252 83h16v1h-16zM139 84h110v1h-110zM252 84h16v1h-16zM139 85h110v1h-110zM252 85h16v1h-16zM139 86h110v1h-110zM252 86h16v1h-16zM139 87h110v1h-110zM252 87h16v1h-16zM139 88h110v1h-110zM252 88h15v1h-15zM139 89h110v1h-110zM251 89h16v1h-16zM139 90h110v1h-110zM251 90h16v1h-16zM139 91h111v1h-111zM251 91h16v1h-16zM139 92h111v1h-111zM251 92h16v1h-16zM139 93h111v1h-111zM251 93h16v1h-16zM139 94h111v1h-111zM251 94h16v1h-16zM139 95h111v1h-111zM251 95h16v1h-16zM139 96h128v1h-128zM139 97h128v1h-128zM139 98h128v1h-128zM140 99h109v1h-109zM250 99h17v1h-17zM140 100h109v1h-109zM250 100h17v1h-17zM140 101h109v1h-109zM250 101h17v1h-17zM140 102h109v1h-109zM250 102h18v1h-18zM140 103h109v1h-109zM250 103h18v1h-18zM140 104h109v1h-109zM250 104h18v1h-18zM140 105h108v1h-108zM249 105h19v1h-19zM140 106h108v1h-108zM249 106h19v1h-19zM141 107h107v1h-107zM249 107h19v1h-19zM141 108h107v1h-107zM249 108h20v1h-20zM141 109h107v1h-107zM249 109h20v1h-20zM141 110h107v1h-107zM249 110h20v1h-20zM142 111h106v1h-106zM249 111h20v1h-20zM142 112h105v1h-105zM249 112h21v1h-21zM142 113h105v1h-105zM249 113h21v1h-21zM142 114h105v1h-105zM249 114h21v1h-21zM143 115h104v1h-104zM249 115h22v1h-22zM143 116h104v1h-104zM249 116h22v1h-22zM143 117h104v1h-104zM249 117h22v1h-22zM143 118h104v1h-104zM249 118h23v1h-23zM144 119h103v1h-103zM249 119h23v1h-23zM144 120h103v1h-103zM249 120h23v1h-23zM144 121h103v1h-103zM249 121h24v1h-24zM145 122h103v1h-103zM249 122h24v1h-24zM146 123h102v1h-102zM249 123h25v1h-25zM146 124h102v1h-102zM249 124h26v1h-26zM146 125h102v1h-102zM249 125h27v1h-27zM146 126h102v1h-102zM249 126h29v1h-29zM146 127h133v1h-133zM147 128h133v1h-133zM148 129h133v1h-133zM148 130h134v1h-134zM149 131h133v1h-133zM149 132h134v1h-134zM149 133h135v1h-135zM150 134h134v1h-134zM150 135h134v1h-134zM151 136h134v1h-134zM151 137h136v1h-136zM151 138h137v1h-137zM152 139h137v1h-137zM152 140h138v1h-138zM153 141h138v1h-138zM349 141h1v1h-1zM153 142h138v1h-138zM153 143h139v1h-139zM154 144h139v1h-139zM154 145h139v1h-139zM154 146h140v1h-140zM155 147h21v1h-21zM177 147h118v1h-118zM156 148h20v1h-20zM178 148h117v1h-117zM156 149h20v1h-20zM179 149h116v1h-116zM156 150h20v1h-20zM183 150h25v1h-25zM211 150h84v1h-84zM157 151h19v1h-19zM188 151h12v1h-12zM210 151h85v1h-85zM157 152h19v1h-19zM209 152h86v1h-86zM158 153h18v1h-18zM196 153h99v1h-99zM158 154h18v1h-18zM193 154h102v1h-102zM159 155h18v1h-18zM192 155h103v1h-103zM159 156h18v1h-18zM190 156h105v1h-105zM159 157h18v1h-18zM189 157h106v1h-106zM159 158h19v1h-19zM188 158h107v1h-107zM160 159h18v1h-18zM186 159h109v1h-109zM160 160h19v1h-19zM184 160h111v1h-111zM352 160h1v1h-1zM160 161h19v1h-19zM183 161h112v1h-112zM160 162h20v1h-20zM181 162h114v1h-114zM160 163h135v1h-135zM160 164h134v1h-134zM160 165h134v1h-134zM160 166h134v1h-134zM160 167h134v1h-134zM160 168h135v1h-135zM160 169h135v1h-135zM160 170h135v1h-135zM160 171h118v1h-118zM279 171h16v1h-16zM160 172h118v1h-118zM280 172h15v1h-15zM160 173h118v1h-118zM280 173h15v1h-15zM160 174h117v1h-117zM280 174h16v1h-16zM161 175h116v1h-116zM281 175h16v1h-16zM161 176h116v1h-116zM281 176h17v1h-17zM162 177h115v1h-115zM282 177h17v1h-17zM163 178h114v1h-114zM282 178h18v1h-18zM164 179h114v1h-114zM283 179h10v1h-10zM295 179h4v1h-4zM166 180h112v1h-112zM284 180h10v1h-10zM167 181h111v1h-111zM284 181h11v1h-11zM167 182h111v1h-111zM285 182h11v1h-11zM166 183h112v1h-112zM287 183h9v1h-9zM166 184h112v1h-112zM289 184h6v1h-6zM163 185h116v1h-116zM292 185h2v1h-2zM162 186h117v1h-117zM161 187h118v1h-118zM162 188h117v1h-117zM163 189h117v1h-117zM165 190h115v1h-115zM165 191h115v1h-115zM164 192h116v1h-116zM164 193h116v1h-116zM164 194h116v1h-116zM164 195h117v1h-117zM164 196h117v1h-117zM164 197h117v1h-117zM164 198h117v1h-117zM163 199h118v1h-118zM162 200h119v1h-119zM162 201h119v1h-119zM161 202h121v1h-121zM160 203h122v1h-122zM159 204h123v1h-123zM158 205h124v1h-124zM157 206h125v1h-125zM156 207h126v1h-126zM155 208h128v1h-128zM154 209h129v1h-129zM153 210h130v1h-130zM152 211h131v1h-131zM151 212h132v1h-132zM150 213h134v1h-134zM149 214h135v1h-135zM148 215h136v1h-136zM147 216h136v1h-136zM146 217h137v1h-137zM144 218h139v1h-139zM143 219h139v1h-139zM142 220h139v1h-139zM141 221h139v1h-139zM140 222h139v1h-139zM139 223h139v1h-139zM138 224h140v1h-140zM137 225h140v1h-140zM135 226h125v1h-125zM261 226h15v1h-15zM134 227h126v1h-126zM262 227h13v1h-13zM133 228h127v1h-127zM265 228h9v1h-9zM132 229h128v1h-128zM268 229h5v1h-5zM131 230h129v1h-129zM130 231h130v1h-130zM129 232h131v1h-131zM129 233h131v1h-131zM128 234h132v1h-132zM127 235h133v1h-133zM125 236h135v1h-135zM122 237h138v1h-138zM111 238h4v1h-4zM121 238h140v1h-140zM111 239h150v1h-150zM110 240h57v1h-57zM168 240h94v1h-94zM111 241h55v1h-55zM168 241h94v1h-94zM112 242h53v1h-53zM168 242h94v1h-94zM105 243h60v1h-60zM168 243h95v1h-95zM104 244h60v1h-60zM168 244h95v1h-95zM103 245h60v1h-60zM168 245h95v1h-95zM16 246h1v1h-1zM103 246h60v1h-60zM168 246h95v1h-95zM339 246h1v1h-1zM104 247h58v1h-58zM167 247h96v1h-96zM104 248h57v1h-57zM167 248h96v1h-96zM103 249h58v1h-58zM167 249h97v1h-97zM102 250h58v1h-58zM167 250h97v1h-97zM302 250h5v1h-5zM308 250h4v1h-4zM102 251h57v1h-57zM167 251h97v1h-97zM300 251h13v1h-13zM102 252h56v1h-56zM167 252h97v1h-97zM297 252h18v1h-18zM103 253h55v1h-55zM167 253h97v1h-97zM294 253h25v1h-25zM105 254h52v1h-52zM167 254h97v1h-97zM293 254h10v1h-10zM309 254h4v1h-4zM315 254h6v1h-6zM106 255h50v1h-50zM167 255h97v1h-97zM291 255h10v1h-10zM316 255h6v1h-6zM55 256h9v1h-9zM106 256h50v1h-50zM166 256h98v1h-98zM290 256h8v1h-8zM318 256h5v1h-5zM53 257h22v1h-22zM83 257h2v1h-2zM106 257h49v1h-49zM165 257h99v1h-99zM289 257h6v1h-6zM319 257h4v1h-4zM52 258h36v1h-36zM106 258h48v1h-48zM165 258h99v1h-99zM287 258h6v1h-6zM320 258h3v1h-3zM51 259h40v1h-40zM105 259h48v1h-48zM164 259h100v1h-100zM285 259h7v1h-7zM321 259h3v1h-3zM50 260h44v1h-44zM99 260h13v1h-13zM116 260h37v1h-37zM163 260h101v1h-101zM284 260h6v1h-6zM302 260h2v1h-2zM305 260h3v1h-3zM321 260h4v1h-4zM48 261h65v1h-65zM125 261h27v1h-27zM162 261h102v1h-102zM283 261h6v1h-6zM298 261h15v1h-15zM322 261h3v1h-3zM47 262h67v1h-67zM123 262h26v1h-26zM162 262h102v1h-102zM282 262h6v1h-6zM295 262h20v1h-20zM322 262h3v1h-3zM46 263h69v1h-69zM122 263h26v1h-26zM161 263h103v1h-103zM281 263h5v1h-5zM293 263h24v1h-24zM322 263h4v1h-4zM45 264h70v1h-70zM122 264h26v1h-26zM161 264h104v1h-104zM280 264h5v1h-5zM290 264h28v1h-28zM323 264h3v1h-3zM44 265h73v1h-73zM122 265h25v1h-25zM161 265h104v1h-104zM279 265h5v1h-5zM289 265h15v1h-15zM308 265h11v1h-11zM323 265h3v1h-3zM44 266h74v1h-74zM121 266h11v1h-11zM137 266h9v1h-9zM161 266h104v1h-104zM277 266h5v1h-5zM288 266h11v1h-11zM309 266h9v1h-9zM324 266h2v1h-2zM43 267h77v1h-77zM121 267h10v1h-10zM139 267h6v1h-6zM162 267h103v1h-103zM275 267h5v1h-5zM287 267h9v1h-9zM311 267h9v1h-9zM324 267h2v1h-2zM42 268h87v1h-87zM140 268h4v1h-4zM162 268h103v1h-103zM274 268h5v1h-5zM286 268h8v1h-8zM312 268h9v1h-9zM324 268h3v1h-3zM42 269h85v1h-85zM141 269h2v1h-2zM161 269h104v1h-104zM273 269h5v1h-5zM285 269h6v1h-6zM313 269h6v1h-6zM324 269h3v1h-3zM42 270h84v1h-84zM159 270h107v1h-107zM272 270h5v1h-5zM283 270h7v1h-7zM313 270h6v1h-6zM324 270h4v1h-4zM41 271h87v1h-87zM158 271h108v1h-108zM271 271h5v1h-5zM282 271h7v1h-7zM313 271h7v1h-7zM324 271h3v1h-3zM40 272h10v1h-10zM52 272h77v1h-77zM157 272h110v1h-110zM270 272h5v1h-5zM280 272h8v1h-8zM313 272h5v1h-5zM325 272h2v1h-2zM40 273h9v1h-9zM52 273h79v1h-79zM156 273h111v1h-111zM269 273h5v1h-5zM279 273h8v1h-8zM314 273h5v1h-5zM39 274h10v1h-10zM51 274h1v1h-1zM53 274h80v1h-80zM155 274h118v1h-118zM278 274h7v1h-7zM314 274h5v1h-5zM39 275h9v1h-9zM54 275h80v1h-80zM153 275h119v1h-119zM278 275h6v1h-6zM315 275h4v1h-4zM39 276h9v1h-9zM55 276h81v1h-81zM152 276h119v1h-119zM276 276h7v1h-7zM315 276h4v1h-4zM33 277h1v1h-1zM39 277h9v1h-9zM55 277h82v1h-82zM150 277h122v1h-122zM274 277h8v1h-8zM315 277h4v1h-4zM33 278h1v1h-1zM38 278h9v1h-9zM56 278h82v1h-82zM149 278h132v1h-132zM315 278h4v1h-4zM38 279h9v1h-9zM57 279h82v1h-82zM148 279h132v1h-132zM315 279h3v1h-3zM37 280h10v1h-10zM58 280h83v1h-83zM147 280h131v1h-131zM315 280h3v1h-3zM37 281h9v1h-9zM59 281h83v1h-83zM146 281h131v1h-131zM315 281h3v1h-3zM36 282h10v1h-10zM47 282h1v1h-1zM59 282h216v1h-216zM315 282h3v1h-3zM37 283h9v1h-9zM50 283h1v1h-1zM59 283h215v1h-215zM315 283h3v1h-3zM38 284h8v1h-8zM59 284h213v1h-213zM314 284h4v1h-4zM39 285h7v1h-7zM57 285h1v1h-1zM59 285h212v1h-212zM313 285h4v1h-4zM39 286h7v1h-7zM57 286h1v1h-1zM59 286h210v1h-210zM313 286h4v1h-4zM40 287h7v1h-7zM56 287h212v1h-212zM312 287h4v1h-4zM41 288h6v1h-6zM56 288h211v1h-211zM312 288h3v1h-3zM42 289h4v1h-4zM56 289h210v1h-210zM311 289h3v1h-3zM42 290h4v1h-4zM57 290h207v1h-207zM311 290h3v1h-3zM43 291h4v1h-4zM50 291h1v1h-1zM55 291h208v1h-208zM310 291h3v1h-3zM44 292h3v1h-3zM50 292h1v1h-1zM55 292h206v1h-206zM310 292h2v1h-2zM45 293h3v1h-3zM54 293h5v1h-5zM60 293h200v1h-200zM309 293h2v1h-2zM46 294h3v1h-3zM54 294h5v1h-5zM60 294h198v1h-198zM308 294h2v1h-2zM47 295h3v1h-3zM51 295h8v1h-8zM60 295h196v1h-196zM48 296h2v1h-2zM51 296h3v1h-3zM56 296h3v1h-3zM60 296h195v1h-195zM49 297h4v1h-4zM56 297h198v1h-198zM50 298h2v1h-2zM55 298h199v1h-199zM51 299h202v1h-202zM305 299h1v1h-1zM52 300h10v1h-10zM68 300h184v1h-184zM304 300h1v1h-1zM52 301h3v1h-3zM76 301h15v1h-15zM92 301h159v1h-159zM303 301h1v1h-1zM53 302h1v1h-1zM77 302h9v1h-9zM94 302h114v1h-114zM212 302h31v1h-31zM302 302h1v1h-1zM54 303h1v1h-1zM95 303h11v1h-11zM108 303h100v1h-100zM216 303h22v1h-22zM301 303h1v1h-1zM55 304h1v1h-1zM96 304h9v1h-9zM111 304h98v1h-98zM227 304h8v1h-8zM300 304h1v1h-1zM56 305h1v1h-1zM98 305h6v1h-6zM114 305h94v1h-94zM299 305h1v1h-1zM99 306h2v1h-2zM117 306h91v1h-91zM297 306h2v1h-2zM119 307h45v1h-45zM165 307h43v1h-43zM123 308h40v1h-40zM165 308h43v1h-43zM124 309h37v1h-37zM165 309h43v1h-43zM126 310h33v1h-33zM164 310h44v1h-44zM128 311h29v1h-29zM163 311h45v1h-45zM64 312h1v1h-1zM131 312h24v1h-24zM163 312h45v1h-45zM291 312h1v1h-1zM134 313h19v1h-19zM163 313h45v1h-45zM290 313h1v1h-1zM136 314h16v1h-16zM163 314h45v1h-45zM138 315h11v1h-11zM163 315h45v1h-45zM140 316h7v1h-7zM163 316h45v1h-45zM163 317h45v1h-45zM163 318h45v1h-45zM163 319h44v1h-44zM163 320h44v1h-44zM163 321h44v1h-44zM77 322h1v1h-1zM163 322h44v1h-44zM277 322h2v1h-2zM163 323h44v1h-44zM81 324h1v1h-1zM163 324h44v1h-44zM274 324h1v1h-1zM163 325h43v1h-43zM163 326h42v1h-42zM162 327h42v1h-42zM162 328h41v1h-41zM163 329h38v1h-38zM163 330h37v1h-37zM164 331h35v1h-35zM165 332h33v1h-33zM166 333h31v1h-31zM167 334h28v1h-28zM169 335h24v1h-24zM177 336h11v1h-11zM136 348h1v1h-1zM159 352h1v1h-1z"/></svg>