<svg xmlns="http://www.w3.org/2000/svg" width="727" height="1180" viewBox="0 0 727 1180">
  <defs>
    <filter id="shadow" x="-20%" y="-20%" width="140%" height="140%">
      <feDropShadow dx="0" dy="3" stdDeviation="8" flood-color="#000" flood-opacity=".10"/>
    </filter>
    <marker id="arrow" markerWidth="14" markerHeight="14" refX="12" refY="7" orient="auto" markerUnits="strokeWidth">
      <path d="M0,0 L14,7 L0,14 z" fill="#ff9448"/>
    </marker>
  </defs>

  <rect width="727" height="1180" fill="#f3f3f3"/>
  <rect x="0" y="0" width="727" height="1180" fill="#000" opacity=".34"/>

  <rect x="28" y="88" rx="20" ry="20" width="671" height="370" fill="#fff" opacity=".97" filter="url(#shadow)"/>
  <g font-family="system-ui,-apple-system,BlinkMacSystemFont,'Segoe UI','PingFang SC','Microsoft YaHei',sans-serif" fill="#222">
    <text x="58" y="150" font-size="30" font-weight="650">机器人可获取的群聊消息范围</text>
    <text x="58" y="190" font-size="24" fill="#888">获取群内全部消息</text>
    <text x="655" y="162" font-size="44" fill="#888">›</text>

    <line x1="58" y1="222" x2="668" y2="222" stroke="#e8e8e8"/>

    <text x="58" y="285" font-size="30" font-weight="650">机器人主动在群聊内发言</text>
    <text x="58" y="325" font-size="24" fill="#888">机器人可主动发消息，如定时任务推送等</text>

    <rect x="584" y="274" width="86" height="52" rx="26" fill="#1787d8"/>
    <circle cx="645" cy="300" r="22" fill="#fff"/>

    <line x1="58" y1="355" x2="668" y2="355" stroke="#e8e8e8"/>

    <text x="58" y="414" font-size="30" font-weight="650">查看机器人添加者</text>
    <text x="332" y="414" font-size="22" fill="#888">同道中人 | 有事@我...</text>
    <text x="655" y="420" font-size="44" fill="#888">›</text>
  </g>

  <path d="M210 250 C250 215, 285 185, 330 155" stroke="#ff9448" stroke-width="12" fill="none" marker-end="url(#arrow)"/>
  <path d="M458 420 C510 370, 555 330, 610 308" stroke="#ff9448" stroke-width="12" fill="none" marker-end="url(#arrow)"/>

  <rect x="0" y="626" width="727" height="554" fill="#fff" filter="url(#shadow)"/>
  <g font-family="system-ui,-apple-system,BlinkMacSystemFont,'Segoe UI','PingFang SC','Microsoft YaHei',sans-serif">
    <text x="363.5" y="686" text-anchor="middle" font-size="24" fill="#999">允许机器人可获取的群聊消息范围</text>
    <line x1="0" y1="725" x2="727" y2="725" stroke="#e8e8e8"/>
    <text x="363.5" y="800" text-anchor="middle" font-size="31" font-weight="700" fill="#222">获取群内全部消息</text>
    <text x="670" y="801" text-anchor="middle" font-size="42" font-weight="700" fill="#19a7e8">✓</text>
    <line x1="0" y1="845" x2="727" y2="845" stroke="#e8e8e8"/>
    <text x="363.5" y="920" text-anchor="middle" font-size="29" font-weight="650" fill="#222">获取@机器人的最近10条消息</text>
    <line x1="0" y1="965" x2="727" y2="965" stroke="#e8e8e8"/>
    <text x="363.5" y="1040" text-anchor="middle" font-size="29" font-weight="650" fill="#222">仅获取@机器人的消息</text>
    <line x1="0" y1="1085" x2="727" y2="1085" stroke="#e8e8e8"/>
    <text x="363.5" y="1143" text-anchor="middle" font-size="31" font-weight="700" fill="#222">取消</text>
  </g>

  <path d="M418 595 C430 625, 440 650, 455 680" stroke="#ff9448" stroke-width="12" fill="none" marker-end="url(#arrow)"/>
</svg>